<svg width="56" height="57" viewBox="0 0 56 57" fill="none" xmlns="http://www.w3.org/2000/svg">
<g clip-path="url(#clip0_6_176)" filter="url(#filter0_d_6_176)">
<path d="M4 42.1026C4 45.5211 6.77106 48.2917 10.1892 48.2917H45.8106C49.2293 48.2917 52 45.5207 52 42.1026V6.48112C52 3.06244 49.2289 0.291748 45.8108 0.291748H10.1894C6.77069 0.291748 4 3.06281 4 6.48094V42.1024V42.1026Z" fill="#563D7C"/>
<path d="M23.9046 21.5239V14.7264H29.8879C30.4579 14.7264 31.0073 14.7739 31.5364 14.8689C32.0655 14.9638 32.5337 15.1333 32.9408 15.3776C33.3477 15.6219 33.6734 15.9611 33.9177 16.3952C34.1618 16.8294 34.284 17.3857 34.284 18.0639C34.284 19.2851 33.9177 20.1671 33.1849 20.7097C32.4524 21.2526 31.5162 21.5239 30.3764 21.5239H23.9046ZM17.514 9.7605V38.823H31.5975C32.9001 38.823 34.1687 38.6602 35.4034 38.3346C36.6381 38.0089 37.737 37.5069 38.7004 36.8286C39.6636 36.1502 40.4303 35.2749 41.0001 34.2032C41.5701 33.1312 41.8549 31.8626 41.8549 30.3973C41.8549 28.5791 41.4139 27.0257 40.5321 25.7368C39.6501 24.4477 38.3136 23.5455 36.5226 23.0299C37.8252 22.4059 38.809 21.6052 39.4739 20.6284C40.1385 19.6515 40.471 18.4305 40.471 16.965C40.471 15.6082 40.2471 14.4686 39.7994 13.5459C39.3516 12.6234 38.7207 11.8839 37.9065 11.3276C37.0926 10.7713 36.1157 10.371 34.9759 10.1269C33.8363 9.88256 32.5744 9.7605 31.1905 9.7605H17.514ZM23.9046 33.8571V25.8791H30.8648C32.2487 25.8791 33.3614 26.1979 34.2027 26.8357C35.0438 27.4734 35.4645 28.5384 35.4645 30.0309C35.4645 30.7909 35.3355 31.4149 35.0777 31.9033C34.8199 32.3917 34.474 32.7786 34.0397 33.0634C33.6057 33.3484 33.1035 33.5518 32.5337 33.6741C31.9637 33.7959 31.3669 33.8571 30.7427 33.8571H23.9046Z" fill="white"/>
</g>
<defs>
<filter id="filter0_d_6_176" x="0" y="0.291748" width="56" height="56" filterUnits="userSpaceOnUse" color-interpolation-filters="sRGB">
<feFlood flood-opacity="0" result="BackgroundImageFix"/>
<feColorMatrix in="SourceAlpha" type="matrix" values="0 0 0 0 0 0 0 0 0 0 0 0 0 0 0 0 0 0 127 0" result="hardAlpha"/>
<feOffset dy="4"/>
<feGaussianBlur stdDeviation="2"/>
<feComposite in2="hardAlpha" operator="out"/>
<feColorMatrix type="matrix" values="0 0 0 0 0 0 0 0 0 0 0 0 0 0 0 0 0 0 0.25 0"/>
<feBlend mode="normal" in2="BackgroundImageFix" result="effect1_dropShadow_6_176"/>
<feBlend mode="normal" in="SourceGraphic" in2="effect1_dropShadow_6_176" result="shape"/>
</filter>
<clipPath id="clip0_6_176">
<rect width="48" height="48" fill="white" transform="translate(4 0.291748)"/>
</clipPath>
</defs>
</svg>
