<svg width="48" height="49" viewBox="0 0 48 49" fill="none" xmlns="http://www.w3.org/2000/svg">
<path d="M8.85301 41.0932L5.48401 3.29175H42.516L39.1425 41.0872L23.9775 45.2917L8.85301 41.0932Z" fill="#1572B6"/>
<path d="M24 42.0787L36.255 38.6812L39.138 6.38324H24V42.0787Z" fill="#33A9DC"/>
<path d="M24 20.0783H30.135L30.558 15.3308H24V10.6943H35.625L35.514 11.9378L34.3755 24.7148H24V20.0783Z" fill="white"/>
<path d="M24.0285 32.1187L24.0075 32.1247L18.8445 30.7297L18.5145 27.0322H13.86L14.5095 34.3117L24.006 36.9487L24.0285 36.9427V32.1187Z" fill="#EBEBEB"/>
<path d="M29.7405 24.5182L29.1825 30.7268L24.012 32.1217V36.9458L33.516 34.3118L33.5865 33.5288L34.392 24.5182H29.7405Z" fill="white"/>
<path d="M24.0165 10.6943V15.3308H12.8175L12.7245 14.2883L12.513 11.9378L12.402 10.6943H24.0165ZM24 20.0783V24.7148H18.9015L18.8085 23.6723L18.5985 21.3218L18.4875 20.0783H24Z" fill="#EBEBEB"/>
</svg>
