<svg width="32" height="49" viewBox="0 0 32 49" fill="none" xmlns="http://www.w3.org/2000/svg">
<g clip-path="url(#clip0_6_193)">
<path d="M8 48.2917C12.416 48.2917 16 44.7077 16 40.2917V32.2917H8C3.584 32.2917 0 35.8757 0 40.2917C0 44.7077 3.584 48.2917 8 48.2917Z" fill="#0ACF83"/>
<path d="M0 24.2917C0 19.8757 3.584 16.2917 8 16.2917H16V32.2917H8C3.584 32.2917 0 28.7077 0 24.2917Z" fill="#A259FF"/>
<path d="M0 8.29175C0 3.87575 3.584 0.291748 8 0.291748H16V16.2917H8C3.584 16.2917 0 12.7077 0 8.29175Z" fill="#F24E1E"/>
<path d="M16 0.291748H24C28.416 0.291748 32 3.87575 32 8.29175C32 12.7077 28.416 16.2917 24 16.2917H16V0.291748Z" fill="#FF7262"/>
<path d="M32 24.2917C32 28.7077 28.416 32.2917 24 32.2917C19.584 32.2917 16 28.7077 16 24.2917C16 19.8757 19.584 16.2917 24 16.2917C28.416 16.2917 32 19.8757 32 24.2917Z" fill="#1ABCFE"/>
</g>
<defs>
<clipPath id="clip0_6_193">
<rect width="32" height="48" fill="white" transform="translate(0 0.291748)"/>
</clipPath>
</defs>
</svg>
