<svg width="48" height="49" viewBox="0 0 48 49" fill="none" xmlns="http://www.w3.org/2000/svg">
<g clip-path="url(#clip0_6_170)">
<path d="M0 0.291748H48V48.2917H0V0.291748Z" fill="#F7DF1E"/>
<path d="M12.621 40.404L16.2942 38.181C17.0029 39.4374 17.6475 40.5006 19.1938 40.5006C20.676 40.5006 21.6107 39.9208 21.6107 37.6656V22.3284H26.1214V37.7293C26.1214 42.4012 23.3828 44.5279 19.3872 44.5279C15.7787 44.5279 13.6842 42.6591 12.6208 40.4036L12.621 40.404ZM28.5715 39.9206L32.2442 37.7942C33.2112 39.3731 34.4678 40.533 36.6908 40.533C38.56 40.533 39.7517 39.5985 39.7517 38.3096C39.7517 36.7631 38.5273 36.2152 36.4652 35.3134L35.3378 34.8296C32.0833 33.4446 29.9247 31.7046 29.9247 28.0314C29.9247 24.6482 32.5022 22.0704 36.5299 22.0704C39.3975 22.0704 41.4597 23.0694 42.9417 25.6792L39.4294 27.9349C38.656 26.5494 37.8186 26.0017 36.5297 26.0017C35.2086 26.0017 34.3708 26.8395 34.3708 27.9349C34.3708 29.2881 35.2086 29.8361 37.1417 30.6739L38.2693 31.1571C42.1037 32.8005 44.2624 34.4758 44.2624 38.2453C44.2624 42.3054 41.0727 44.5284 36.7873 44.5284C32.5988 44.5284 29.8922 42.5308 28.5713 39.9208" fill="black"/>
</g>
<defs>
<clipPath id="clip0_6_170">
<rect width="48" height="48" fill="white" transform="translate(0 0.291748)"/>
</clipPath>
</defs>
</svg>
