<svg width="49" height="49" viewBox="0 0 49 49" fill="none" xmlns="http://www.w3.org/2000/svg">
<g clip-path="url(#clip0_6_185)">
<path d="M23.8901 0.305298C11.6864 0.305298 12.4484 5.59753 12.4484 5.59753L12.462 11.0804H24.1077V12.7266H7.83647C7.83647 12.7266 0.0273438 11.8409 0.0273438 24.1543C0.0273438 36.4681 6.84334 36.0314 6.84334 36.0314H10.9111V30.3173C10.9111 30.3173 10.6918 23.5013 17.6183 23.5013H29.1688C29.1688 23.5013 35.6582 23.6062 35.6582 17.2295V6.6861C35.6582 6.6861 36.6438 0.305298 23.8901 0.305298ZM17.4687 3.99245C17.7439 3.9922 18.0164 4.04622 18.2707 4.15142C18.525 4.25662 18.7561 4.41093 18.9506 4.60553C19.1452 4.80012 19.2995 5.03117 19.4047 5.28547C19.5099 5.53977 19.564 5.81231 19.5637 6.08751C19.564 6.3627 19.5099 6.63525 19.4047 6.88955C19.2995 7.14384 19.1452 7.3749 18.9506 7.56949C18.7561 7.76408 18.525 7.9184 18.2707 8.02359C18.0164 8.12879 17.7439 8.18281 17.4687 8.18257C17.1935 8.18281 16.9209 8.12879 16.6666 8.02359C16.4123 7.9184 16.1813 7.76408 15.9867 7.56949C15.7921 7.3749 15.6378 7.14384 15.5326 6.88955C15.4274 6.63525 15.3734 6.3627 15.3736 6.08751C15.3734 5.81231 15.4274 5.53977 15.5326 5.28547C15.6378 5.03117 15.7921 4.80012 15.9867 4.60553C16.1813 4.41093 16.4123 4.25662 16.6666 4.15142C16.9209 4.04622 17.1935 3.9922 17.4687 3.99245Z" fill="url(#paint0_linear_6_185)"/>
<path d="M24.2366 48.1272C36.4403 48.1272 35.6783 42.835 35.6783 42.835L35.6648 37.3522H24.0188V35.7061H40.2901C40.2901 35.7061 48.0992 36.5918 48.0992 24.278C48.0992 11.9644 41.2832 12.4011 41.2832 12.4011H37.2154V18.115C37.2154 18.115 37.4347 24.931 30.5082 24.931H18.9577C18.9577 24.931 12.4683 24.8261 12.4683 31.203V41.7466C12.4683 41.7466 11.4829 48.1272 24.2364 48.1272H24.2366ZM30.6581 44.4404C30.3829 44.4407 30.1103 44.3866 29.856 44.2815C29.6017 44.1763 29.3707 44.0219 29.1761 43.8273C28.9815 43.6328 28.8272 43.4017 28.722 43.1474C28.6168 42.8931 28.5628 42.6206 28.563 42.3454C28.5627 42.0702 28.6168 41.7976 28.7219 41.5433C28.8271 41.2889 28.9814 41.0579 29.176 40.8633C29.3706 40.6686 29.6017 40.5143 29.856 40.4091C30.1103 40.3039 30.3829 40.2499 30.6581 40.2501C30.9333 40.2499 31.2058 40.3039 31.4601 40.4091C31.7144 40.5143 31.9455 40.6686 32.1401 40.8632C32.3347 41.0578 32.489 41.2888 32.5942 41.5431C32.6994 41.7974 32.7534 42.07 32.7531 42.3452C32.7534 42.6204 32.6994 42.8929 32.5942 43.1472C32.489 43.4015 32.3347 43.6326 32.1401 43.8272C31.9455 44.0217 31.7144 44.1761 31.4601 44.2813C31.2058 44.3865 30.9333 44.4405 30.6581 44.4402V44.4404Z" fill="url(#paint1_linear_6_185)"/>
</g>
<defs>
<linearGradient id="paint0_linear_6_185" x1="4.64704" y1="4.60659" x2="28.47" y2="28.1919" gradientUnits="userSpaceOnUse">
<stop stop-color="#387EB8"/>
<stop offset="1" stop-color="#366994"/>
</linearGradient>
<linearGradient id="paint1_linear_6_185" x1="19.2695" y1="19.7516" x2="44.8527" y2="43.9362" gradientUnits="userSpaceOnUse">
<stop stop-color="#FFE052"/>
<stop offset="1" stop-color="#FFC331"/>
</linearGradient>
<clipPath id="clip0_6_185">
<rect width="48.1882" height="48" fill="white" transform="translate(0 0.291748)"/>
</clipPath>
</defs>
</svg>
