<svg width="48" height="37" viewBox="0 0 48 37" fill="none" xmlns="http://www.w3.org/2000/svg">
<g clip-path="url(#clip0_6_179)">
<path d="M41.3027 21.0131C39.6328 21.0217 38.1814 21.4239 36.9662 22.0185C36.5201 21.1354 36.0743 20.3486 35.9957 19.7715C35.9081 19.0984 35.8033 18.6874 35.9081 17.883C36.0131 17.0786 36.4853 15.9332 36.4765 15.8458C36.4678 15.7584 36.3715 15.3474 35.4098 15.3388C34.4481 15.33 33.6175 15.5224 33.5213 15.7759C33.4251 16.0294 33.2415 16.6065 33.1191 17.2009C32.953 18.0754 31.1957 21.1965 30.1903 22.8315C29.8667 22.1934 29.587 21.6337 29.5257 21.1879C29.4383 20.5147 29.3333 20.1037 29.4383 19.2994C29.5433 18.495 30.0154 17.3497 30.0066 17.2622C29.9978 17.1748 29.9016 16.7638 28.9399 16.7552C27.978 16.7464 27.1474 16.9387 27.0514 17.1922C26.9552 17.4459 26.8502 18.0403 26.6492 18.6174C26.448 19.1946 24.1137 24.4056 23.5016 25.7518C23.2543 26.2967 22.9949 26.836 22.7235 27.3694C22.7235 27.3694 22.7147 27.3956 22.6885 27.4393C22.6032 27.6065 22.5158 27.7727 22.4263 27.9377V27.9463C22.2951 28.1826 22.1552 28.401 22.0853 28.401C22.0328 28.401 21.9366 27.7716 22.1027 26.9147C22.4524 25.1049 23.283 22.2896 23.2744 22.1934C23.2744 22.1409 23.4317 21.6514 22.7323 21.3977C22.0502 21.1442 21.8055 21.5638 21.7442 21.5638C21.6831 21.5638 21.6392 21.7125 21.6392 21.7125C21.6392 21.7125 22.4001 18.5475 20.188 18.5475C18.8067 18.5475 16.9005 20.0601 15.9563 21.4239C14.8829 22.0081 13.8104 22.5939 12.7388 23.1814C12.2232 23.4699 11.6897 23.7585 11.1913 24.0294C11.1563 23.9946 11.1214 23.9507 11.0863 23.9158C8.4109 21.0568 3.4624 19.0371 3.67221 15.1989C3.75096 13.8 4.23171 10.1278 13.176 5.66887C20.5377 2.04037 26.3957 3.04575 27.4099 5.27531C28.8612 8.45794 24.2711 14.3683 16.6645 15.225C13.7618 15.5486 12.2404 14.4294 11.8558 14.0098C11.4536 13.5726 11.3923 13.5463 11.2436 13.6339C10.999 13.7651 11.1563 14.1585 11.2436 14.3857C11.4711 14.9801 12.4065 16.0294 13.989 16.5454C15.388 16.9999 18.789 17.2536 22.9071 15.6622C27.5147 13.8786 31.117 8.92125 30.0591 4.76831C29.001 0.554061 22.0065 -0.836063 15.388 1.51575C11.4536 2.91487 7.1869 5.118 4.11809 7.98581C0.472149 11.3955 -0.104976 14.3595 0.131087 15.6011C0.979337 20.0076 7.05584 22.8754 9.4864 24.9999C9.36396 25.0699 9.25015 25.1312 9.15415 25.1837C7.93877 25.7869 3.3049 28.2086 2.15084 30.7704C0.839462 33.6731 2.36084 35.7542 3.36621 36.0337C6.48752 36.8994 9.69621 35.3432 11.4186 32.7726C13.141 30.2021 12.9311 26.8622 12.1356 25.3322C12.1268 25.3147 12.1182 25.2971 12.1005 25.2797C12.4153 25.0961 12.7388 24.9037 13.0536 24.7202C13.6322 24.3781 14.2181 24.0487 14.811 23.7321C14.5136 24.5452 14.295 25.5157 14.1902 26.9147C14.059 28.5585 14.7321 30.6917 15.6152 31.5309C16.0088 31.8984 16.4721 31.9071 16.7695 31.9071C17.8011 31.9071 18.2646 31.0502 18.7804 30.036C19.4098 28.7946 19.9781 27.3519 19.9781 27.3519C19.9781 27.3519 19.27 31.2514 21.1935 31.2514C21.8929 31.2514 22.6011 30.342 22.9159 29.8787V29.8873C22.9159 29.8873 22.9333 29.8611 22.9684 29.7999C23.0383 29.6863 23.082 29.6162 23.082 29.6162V29.5989C23.3618 29.1092 23.9914 27.9988 24.9268 26.154C26.1334 23.7759 27.2963 20.8033 27.2963 20.8033C27.2963 20.8033 27.4013 21.5289 27.7596 22.7355C27.9696 23.4437 28.4065 24.2218 28.7563 24.9737C28.4766 25.3672 28.3017 25.5857 28.3017 25.5857L28.3105 25.5945C28.083 25.8917 27.8383 26.2151 27.5672 26.5301C26.6141 27.6666 25.4777 28.9695 25.3202 29.3452C25.1365 29.7911 25.1803 30.1147 25.5302 30.3771C25.7837 30.5694 26.2382 30.5955 26.7017 30.5694C27.5586 30.5081 28.1618 30.2983 28.459 30.1672C28.9225 30.0011 29.4645 29.7474 29.9715 29.3715C30.9072 28.6807 31.4753 27.6928 31.423 26.3902C31.3967 25.6732 31.1607 24.9562 30.8721 24.2829C30.9597 24.1607 31.0382 24.0382 31.1258 23.9158C32.6033 21.7562 33.7487 19.3867 33.7487 19.3867C33.7487 19.3867 33.8537 20.1124 34.212 21.3191C34.387 21.9311 34.7455 22.5956 35.0601 23.2425C33.67 24.3705 32.8131 25.6819 32.5071 26.5387C31.9564 28.1301 32.3846 28.8469 33.1978 29.013C33.565 29.0917 34.0896 28.9168 34.4743 28.7507C34.9639 28.5934 35.541 28.3224 36.0919 27.9201C37.0275 27.2295 37.9279 26.2676 37.8754 24.9651C37.8491 24.3705 37.6918 23.7846 37.4732 23.2162C38.6535 22.7269 40.1749 22.4557 42.1157 22.683C46.2776 23.1726 47.0995 25.7692 46.942 26.8624C46.7846 27.9551 45.9103 28.5497 45.622 28.7332C45.3332 28.917 45.2372 28.9781 45.2635 29.1092C45.2983 29.3016 45.4382 29.2929 45.6831 29.2579C46.0242 29.1967 47.869 28.3747 47.9475 26.3638C48.0788 23.7934 45.6306 20.9869 41.3027 21.0131ZM9.19784 31.8371C7.81634 33.3409 5.89296 33.9092 5.06234 33.4284C4.17059 32.9124 4.52027 30.6917 6.2164 29.1006C7.24802 28.1301 8.57702 27.2293 9.46015 26.6786C9.66115 26.5562 9.95852 26.3814 10.317 26.1628C10.3781 26.1277 10.4132 26.1103 10.4132 26.1103L10.623 25.9791C11.2436 28.2523 10.6493 30.2546 9.19784 31.8371ZM19.2525 24.9999C18.7716 26.1716 17.7662 29.1705 17.1542 29.0044C16.6296 28.8645 16.306 26.5912 17.0492 24.3442C17.4251 23.2162 18.2207 21.8698 18.6842 21.3454C19.4361 20.5059 20.2667 20.226 20.4677 20.5672C20.7214 21.0131 19.5497 24.2655 19.2525 24.9999ZM27.5498 28.9693C27.3486 29.0743 27.1564 29.1442 27.0688 29.0917C27.0077 29.0567 27.1564 28.9168 27.1564 28.9168C27.1564 28.9168 28.1968 27.7978 28.6077 27.2906C28.8439 26.9934 29.1235 26.6437 29.4208 26.2502V26.3638C29.4208 27.7016 28.1267 28.6022 27.5496 28.9693H27.5498ZM33.9497 27.5092C33.801 27.4042 33.8273 27.0546 34.3257 25.9616C34.518 25.5332 34.9725 24.8164 35.7508 24.1256C35.8382 24.4054 35.8995 24.6765 35.8907 24.93C35.8819 26.6175 34.6755 27.2469 33.9497 27.5092Z" fill="#CD6799"/>
</g>
<defs>
<clipPath id="clip0_6_179">
<rect width="48" height="36" fill="white" transform="translate(0 0.291748)"/>
</clipPath>
</defs>
</svg>
