<svg width="48" height="49" viewBox="0 0 48 49" fill="none" xmlns="http://www.w3.org/2000/svg">
<g clip-path="url(#clip0_6_182)">
<path d="M0 24.2917V48.2917H48V0.291748H0V24.2917Z" fill="#007ACC"/>
<path d="M10.6147 24.4511L10.5995 26.4167H16.847V44.1692H21.266V26.4167H27.5137V24.4892C27.5137 23.4223 27.4909 22.5309 27.4605 22.5081C27.4376 22.4777 23.6355 22.4623 19.0262 22.47L10.6374 22.4929L10.6147 24.4509V24.4511ZM38.7313 22.437C39.9502 22.7417 40.8799 23.2826 41.7332 24.1665C42.1751 24.639 42.8302 25.4998 42.8837 25.7055C42.8987 25.7664 40.8112 27.1684 39.5465 27.9532C39.5008 27.9836 39.3178 27.7856 39.1121 27.4807C38.495 26.5817 37.8474 26.1932 36.8569 26.1246C35.4019 26.0256 34.4645 26.7874 34.4722 28.0597C34.4722 28.4332 34.5255 28.6541 34.6779 28.9588C34.998 29.6218 35.5922 30.018 37.4589 30.8256C40.895 32.3036 42.3654 33.2788 43.2799 34.6656C44.3008 36.2122 44.5294 38.6809 43.836 40.5171C43.0742 42.5132 41.1847 43.8694 38.5254 44.3188C37.7027 44.4636 35.7523 44.4407 34.8684 44.2807C32.9409 43.938 31.1122 42.9855 29.9846 41.736C29.5427 41.2485 28.6817 39.9759 28.7351 39.8846C28.758 39.8541 28.956 39.7322 29.1769 39.6026C29.3902 39.4807 30.198 39.0159 30.9598 38.5742L32.3389 37.7741L32.6284 38.2009C33.0322 38.8177 33.9159 39.6636 34.4494 39.9456C35.9807 40.7531 38.0837 40.6389 39.1198 39.7093C39.5617 39.3056 39.7445 38.8866 39.7445 38.2693C39.7445 37.7132 39.6759 37.4694 39.3864 37.0504C39.0133 36.5169 38.2513 36.0675 36.0874 35.1304C33.6112 34.0635 32.5445 33.4009 31.5694 32.3494C31.0055 31.74 30.4721 30.7646 30.2512 29.9494C30.0684 29.2712 30.0225 27.5722 30.1674 26.8866C30.678 24.4941 32.4836 22.8255 35.0893 22.3303C35.9349 22.1704 37.9007 22.2313 38.7313 22.437Z" fill="white"/>
</g>
<defs>
<clipPath id="clip0_6_182">
<rect width="48" height="48" fill="white" transform="translate(0 0.291748)"/>
</clipPath>
</defs>
</svg>
